<?xml version="1.0" standalone="no"?>
<!DOCTYPE svg PUBLIC "-//W3C//DTD SVG 20010904//EN"
 "http://www.w3.org/TR/2001/REC-SVG-20010904/DTD/svg10.dtd">
<svg version="1.0" xmlns="http://www.w3.org/2000/svg"
 width="984.000000pt" height="984.000000pt" viewBox="0 0 984.000000 984.000000"
 preserveAspectRatio="xMidYMid meet">
<metadata>
Created by potrace 1.14, written by Peter Selinger 2001-2017
</metadata>
<g transform="translate(0.000000,984.000000) scale(0.100000,-0.100000)"
fill="#000000" stroke="none">
<path d="M4703 9524 c-141 -68 -203 -248 -138 -404 46 -111 87 -148 184 -166
51 -10 85 -11 149 -2 79 11 84 13 130 58 51 51 102 156 102 213 0 17 -13 69
-28 115 -31 94 -65 136 -147 183 -43 25 -60 29 -125 29 -59 -1 -86 -6 -127
-26z m212 -97 c27 -14 42 -33 70 -92 44 -90 29 -187 -40 -255 -44 -43 -56 -46
-154 -42 -45 3 -103 63 -126 132 -35 104 6 236 79 259 17 5 40 12 51 14 26 7
95 -3 120 -16z"/>
<path d="M5357 9543 c-4 -3 -7 -39 -7 -79 0 -56 -5 -81 -20 -106 -17 -28 -20
-51 -20 -152 0 -88 -4 -124 -14 -135 -16 -18 -38 -90 -31 -101 3 -4 46 -9 97
-12 58 -3 105 -11 125 -21 45 -24 79 -21 149 12 80 38 128 95 156 186 47 153
7 284 -108 355 -22 15 -52 20 -114 21 -66 2 -86 6 -99 21 -11 13 -29 18 -62
18 -25 0 -49 -3 -52 -7z m297 -162 l41 -41 0 -88 c0 -67 -4 -93 -17 -112 -10
-13 -18 -34 -18 -45 -1 -51 -52 -68 -182 -58 -100 7 -104 12 -68 83 16 32 20
59 20 152 0 155 1 156 64 160 80 5 115 -7 160 -51z"/>
<path d="M4190 9432 c0 -21 7 -48 16 -60 16 -24 35 -128 27 -149 -3 -8 -26
-13 -62 -13 -39 0 -65 -6 -86 -20 -53 -35 -85 -23 -85 31 0 11 -6 22 -14 25
-8 3 -16 29 -21 67 -3 34 -10 64 -15 67 -4 3 -31 3 -59 2 -46 -4 -51 -6 -51
-28 0 -13 8 -45 19 -71 10 -26 22 -75 25 -108 4 -33 14 -70 22 -83 8 -12 17
-58 21 -102 4 -53 10 -80 18 -80 13 0 25 -43 25 -86 0 -33 16 -38 46 -15 15
12 37 21 50 21 28 0 31 16 8 41 -10 11 -20 47 -24 91 -4 40 -11 81 -15 92 -10
23 9 36 53 36 17 0 49 9 69 20 46 24 108 27 117 4 3 -9 6 -33 6 -54 0 -21 7
-45 15 -54 8 -8 18 -42 22 -75 3 -34 9 -61 14 -61 10 0 109 62 109 68 0 3 -8
14 -17 24 -11 13 -20 46 -24 95 -4 42 -14 82 -22 91 -9 10 -18 44 -22 77 -4
33 -15 86 -26 118 -10 31 -19 73 -19 92 l0 35 -60 0 -60 0 0 -38z"/>
<path d="M6053 9418 c-17 -22 -42 -101 -53 -163 -6 -33 -17 -73 -24 -90 -8
-16 -17 -59 -20 -94 -4 -35 -13 -73 -21 -85 -7 -11 -15 -39 -17 -61 -3 -37 0
-41 32 -56 78 -37 76 -37 84 42 3 39 13 83 21 99 8 16 20 62 25 102 6 40 15
74 20 76 9 3 15 28 25 111 3 24 12 52 20 61 20 22 19 56 -1 64 -27 10 -81 7
-91 -6z"/>
<path d="M6402 9306 c-61 -17 -91 -51 -98 -113 -9 -75 8 -115 74 -170 105 -87
142 -126 142 -151 0 -34 -17 -60 -49 -76 -26 -14 -32 -13 -77 11 -64 33 -107
77 -100 100 4 12 -5 29 -24 50 -58 62 -100 52 -100 -23 0 -32 6 -49 20 -61 11
-10 20 -26 20 -37 0 -20 64 -86 84 -86 6 0 30 -9 51 -21 26 -14 66 -23 115
-26 l75 -5 53 55 c52 55 52 56 52 121 l0 64 -77 76 c-42 42 -83 76 -89 76 -24
0 -74 51 -74 75 0 38 26 55 83 55 44 -1 57 -5 87 -32 25 -23 35 -41 35 -63 0
-26 4 -30 30 -33 17 -2 40 -13 52 -25 29 -26 38 -16 37 40 -1 35 -6 50 -24 63
-13 9 -20 22 -16 28 11 19 -13 52 -38 52 -12 0 -32 11 -45 23 -17 19 -33 24
-74 26 -28 1 -53 6 -55 11 -4 12 -13 11 -70 -4z"/>
<path d="M3609 9285 c-40 -23 -69 -35 -87 -35 -10 0 -25 -8 -34 -19 -8 -10
-36 -21 -61 -25 -25 -4 -51 -14 -57 -21 -7 -8 -23 -15 -35 -15 -12 0 -34 -9
-48 -20 -14 -11 -33 -20 -44 -20 -10 0 -24 -4 -32 -9 -12 -8 -10 -16 13 -45
32 -43 41 -44 86 -11 48 36 83 33 108 -8 10 -19 25 -51 32 -73 7 -21 21 -55
31 -74 11 -19 19 -42 19 -51 0 -9 6 -19 14 -22 8 -3 17 -21 21 -39 12 -56 59
-147 76 -148 22 0 79 21 79 29 0 12 -42 136 -50 146 -9 12 -55 128 -65 165 -4
14 -15 33 -23 43 -11 12 -17 38 -17 75 l0 57 35 3 c38 3 88 37 91 62 6 58 -12
78 -52 55z"/>
<path d="M6932 9089 c-13 -16 -21 -36 -18 -44 6 -17 81 -57 90 -48 10 10 35
-29 36 -55 0 -24 -32 -92 -106 -227 -24 -44 -52 -96 -62 -115 -9 -19 -21 -38
-26 -42 -16 -11 11 -56 44 -73 18 -9 33 -15 34 -13 1 2 11 16 22 33 26 39 104
183 150 274 52 104 69 122 103 108 14 -6 37 -21 52 -34 14 -13 34 -23 45 -23
17 0 82 56 73 64 -2 2 -33 19 -69 38 -36 20 -83 46 -105 58 -22 13 -53 30 -70
38 -16 8 -42 23 -57 34 -14 10 -35 18 -47 18 -11 0 -25 9 -31 20 -15 27 -31
24 -58 -11z"/>
<path d="M3026 9011 c-3 -4 -19 -11 -35 -14 -16 -3 -35 -13 -44 -21 -8 -8 -44
-31 -80 -51 -36 -20 -71 -42 -77 -50 -7 -8 -21 -15 -32 -15 -24 0 -88 -50 -88
-69 0 -8 10 -31 23 -50 12 -20 28 -45 35 -56 34 -57 152 -256 174 -295 15 -25
35 -57 46 -70 l20 -24 41 27 c127 84 264 165 286 169 16 3 21 12 23 56 4 74 4
74 -202 -50 -53 -32 -101 -58 -108 -58 -17 0 -81 122 -77 145 2 10 18 23 34
29 55 20 183 96 189 112 8 21 -3 82 -16 90 -5 3 -19 -3 -31 -13 -12 -11 -44
-32 -72 -48 -27 -15 -53 -34 -58 -41 -8 -15 -112 -38 -127 -29 -5 3 -10 12
-10 19 0 8 -7 19 -15 26 -33 27 -8 67 65 103 19 10 60 33 90 52 30 19 61 38
69 43 10 5 12 19 6 50 -6 40 -17 52 -29 33z"/>
<path d="M4686 8843 c-20 -10 -67 -17 -140 -21 -64 -3 -120 -10 -131 -18 -11
-7 -56 -18 -100 -24 -44 -7 -96 -18 -115 -25 -19 -8 -55 -16 -80 -20 -25 -3
-54 -12 -66 -20 -11 -7 -42 -16 -67 -20 -26 -4 -50 -11 -53 -16 -2 -5 -34 -17
-69 -28 -35 -11 -72 -24 -82 -29 -10 -5 -45 -20 -78 -32 -67 -26 -262 -114
-285 -130 -8 -6 -26 -16 -40 -22 -32 -16 -164 -93 -198 -117 -15 -9 -74 -49
-132 -87 -57 -38 -126 -88 -151 -110 -26 -23 -71 -58 -100 -77 -78 -52 -501
-485 -579 -591 -106 -147 -179 -250 -187 -266 -4 -8 -35 -58 -68 -110 -50 -78
-197 -359 -253 -486 -31 -68 -82 -205 -82 -217 0 -7 -4 -17 -9 -22 -5 -6 -16
-35 -24 -65 -9 -30 -20 -68 -26 -85 -18 -52 -43 -147 -57 -220 -8 -38 -19 -81
-24 -94 -6 -13 -15 -67 -20 -120 -5 -54 -16 -110 -25 -127 -11 -22 -15 -64
-15 -174 -1 -81 -7 -180 -15 -225 -16 -89 -19 -283 -5 -360 5 -27 12 -126 16
-220 5 -121 11 -175 20 -186 9 -9 17 -53 20 -110 4 -52 13 -106 21 -121 7 -16
18 -62 23 -105 6 -42 16 -86 24 -97 7 -12 17 -42 20 -66 4 -25 15 -61 23 -80
9 -19 18 -50 20 -68 2 -19 10 -44 18 -56 8 -12 21 -42 29 -67 22 -66 45 -130
60 -164 8 -16 28 -61 44 -100 114 -259 333 -614 511 -826 31 -36 95 -114 143
-171 153 -186 539 -506 786 -651 30 -18 70 -42 90 -54 100 -61 367 -188 494
-236 208 -78 208 -78 273 -93 33 -8 67 -18 76 -23 9 -6 45 -15 80 -21 35 -6
82 -18 103 -26 22 -9 73 -17 113 -20 42 -2 88 -11 106 -21 25 -13 66 -17 192
-20 88 -2 183 -8 211 -14 30 -7 94 -9 160 -6 60 4 198 10 307 15 157 8 201 13
215 25 12 11 48 18 112 23 52 4 104 13 116 21 11 7 52 17 91 22 38 5 83 16 99
24 17 9 50 18 73 21 23 2 52 11 65 19 13 9 41 19 62 23 21 3 50 13 64 20 14 8
45 21 70 30 25 9 65 24 90 33 43 15 338 162 423 210 73 41 232 145 280 183 27
21 52 38 56 38 4 0 16 8 27 18 10 9 75 63 144 119 153 124 251 217 364 348 48
55 90 105 94 110 4 6 30 38 58 70 72 84 220 297 285 408 19 33 44 75 55 95 41
70 181 357 204 417 12 33 31 77 42 97 11 21 17 41 14 46 -2 4 6 30 20 57 13
28 24 58 24 68 0 10 7 31 15 48 9 16 21 55 26 87 6 31 17 68 24 82 7 14 16 45
20 70 4 25 15 74 26 109 10 35 19 93 19 129 0 48 5 71 17 84 14 15 19 50 25
176 5 86 15 182 23 213 22 85 21 445 -1 497 -12 27 -18 80 -21 192 -4 115 -9
159 -20 171 -8 10 -18 56 -24 112 -5 53 -16 111 -23 129 -8 18 -17 58 -21 88
-4 30 -13 66 -20 80 -7 14 -18 48 -24 75 -12 63 -47 171 -66 208 -8 16 -15 36
-15 45 0 9 -11 40 -25 67 -13 28 -25 56 -25 63 0 8 -7 26 -15 40 -8 15 -27 59
-43 97 -16 39 -32 77 -36 85 -6 15 -41 78 -91 165 -16 28 -40 73 -54 100 -14
28 -34 61 -44 75 -10 14 -32 47 -50 74 -174 270 -270 383 -576 684 -145 142
-353 316 -423 353 -13 7 -46 30 -74 51 -28 21 -53 38 -56 38 -3 0 -45 25 -94
55 -49 30 -100 60 -114 66 -14 6 -34 16 -45 22 -30 16 -135 66 -180 87 -22 9
-66 29 -98 44 -31 14 -66 26 -77 26 -10 0 -22 4 -25 10 -3 5 -31 17 -61 26
-30 9 -67 22 -82 30 -15 8 -36 14 -47 14 -12 0 -37 8 -57 19 -20 10 -60 21
-89 25 -29 4 -66 14 -83 23 -17 9 -66 20 -108 24 -49 5 -84 14 -94 23 -12 12
-38 16 -107 17 -132 2 -156 5 -176 23 -15 14 -60 16 -377 16 -309 -1 -363 -3
-388 -17z m785 -120 c23 -12 69 -19 144 -23 76 -4 118 -11 135 -22 14 -8 53
-18 88 -22 34 -3 75 -12 90 -19 15 -8 47 -17 71 -21 25 -4 59 -13 75 -21 17
-8 53 -19 81 -25 27 -6 54 -15 60 -20 5 -4 35 -17 65 -28 121 -44 146 -54 161
-68 8 -8 21 -14 29 -14 15 0 246 -115 345 -173 100 -57 301 -193 360 -242 28
-23 67 -53 87 -66 53 -36 147 -119 159 -140 8 -15 3 -23 -28 -43 -21 -13 -56
-27 -78 -31 -22 -4 -47 -12 -55 -19 -8 -7 -62 -27 -120 -45 -58 -18 -119 -36
-136 -42 -65 -20 -213 -50 -314 -64 -58 -8 -114 -19 -125 -25 -36 -18 -207
-28 -400 -25 -204 4 -286 12 -296 27 -4 6 -61 14 -127 19 -68 4 -134 14 -149
22 -15 8 -59 17 -97 21 -38 4 -85 14 -105 22 -20 9 -65 18 -101 21 -49 4 -68
10 -79 25 -12 18 -23 20 -130 16 -85 -2 -123 -8 -141 -20 -14 -8 -52 -18 -85
-21 -34 -4 -77 -13 -97 -21 -19 -8 -66 -18 -104 -22 -38 -3 -98 -15 -133 -25
-40 -12 -94 -19 -146 -19 -46 0 -114 -8 -152 -17 -85 -21 -395 -24 -458 -4
-22 6 -102 16 -178 21 -101 6 -142 13 -150 23 -8 9 -40 17 -85 21 -41 3 -87
13 -103 21 -16 9 -50 18 -76 21 -27 4 -62 15 -79 25 -17 11 -42 19 -55 19 -14
0 -40 8 -59 19 -19 10 -54 22 -78 26 -23 4 -49 14 -58 22 -8 9 -34 18 -58 20
-36 4 -47 1 -71 -21 -31 -29 -45 -33 -45 -12 0 17 124 135 205 196 33 24 85
65 115 90 100 83 404 275 490 310 14 5 32 14 40 20 20 12 157 80 195 95 17 7
56 24 88 39 31 14 66 26 76 26 10 0 30 9 44 20 14 11 38 20 54 20 15 0 47 9
70 20 23 10 64 22 90 26 26 3 60 13 75 20 15 8 49 17 75 19 82 9 118 16 125
28 3 5 57 13 120 17 69 4 127 13 148 23 30 14 86 16 396 17 322 0 365 -2 395
-17z m1992 -943 c8 0 8 -3 1 -10 -12 -12 -44 -3 -44 12 0 6 7 7 16 4 9 -3 21
-6 27 -6z m-4871 -201 c4 -63 10 -94 21 -102 10 -8 16 -39 20 -99 3 -48 13
-100 21 -116 8 -16 19 -70 24 -121 5 -50 15 -98 22 -106 8 -9 16 -60 20 -120
5 -81 10 -108 23 -118 13 -9 18 -37 23 -137 3 -69 12 -147 20 -174 17 -58 19
-216 3 -266 -6 -19 -16 -80 -24 -135 -13 -103 -66 -270 -120 -375 -15 -30 -73
-131 -130 -225 -99 -166 -295 -535 -310 -585 -4 -14 -13 -38 -21 -55 -31 -70
-69 -192 -99 -315 -9 -36 -23 -87 -32 -115 -16 -50 -36 -281 -35 -425 0 -134
18 -344 31 -369 8 -14 19 -50 26 -80 19 -84 49 -162 117 -301 93 -192 167
-289 373 -495 201 -202 313 -290 535 -427 299 -183 727 -363 1115 -469 22 -6
67 -19 101 -30 33 -10 68 -19 78 -19 9 0 42 -9 74 -19 31 -11 84 -22 117 -26
74 -8 108 -15 116 -27 3 -4 54 -10 115 -13 89 -4 111 -8 122 -22 11 -15 27
-18 103 -16 52 2 104 9 122 17 18 8 75 17 127 20 52 3 113 12 136 20 22 8 69
18 105 21 35 4 90 15 122 26 31 10 67 19 78 19 12 0 56 11 98 24 103 33 192
59 213 63 48 8 355 118 434 154 23 10 45 19 49 19 10 0 60 23 230 105 324 157
572 326 787 537 186 182 300 333 394 520 25 51 55 110 65 130 10 20 19 45 19
55 0 10 9 37 21 58 11 22 23 67 26 100 3 33 13 71 22 85 13 21 16 63 19 260 4
312 -17 512 -69 645 -10 28 -19 56 -19 62 0 27 -67 215 -111 310 -10 24 -19
45 -19 48 0 16 -160 322 -225 430 -125 208 -205 362 -209 401 -1 13 -8 29 -15
37 -6 8 -16 44 -22 78 -6 35 -18 72 -27 82 -15 17 -17 51 -17 317 0 270 2 300
18 317 13 15 19 47 25 126 5 58 14 113 21 121 7 9 16 55 20 103 5 52 14 99 23
113 10 15 18 57 21 103 3 50 11 87 23 104 11 18 19 53 21 103 3 41 8 84 13 95
5 11 15 42 23 69 8 28 18 51 24 53 11 4 113 -108 193 -212 30 -38 73 -94 97
-123 24 -30 43 -58 43 -62 0 -5 18 -31 40 -59 22 -28 40 -54 40 -59 0 -5 13
-26 30 -48 16 -21 30 -42 30 -47 0 -4 18 -36 40 -71 22 -35 40 -68 40 -73 0
-5 9 -18 20 -28 11 -10 20 -26 20 -35 0 -10 8 -28 19 -41 10 -13 22 -39 26
-57 4 -18 13 -36 20 -38 8 -3 16 -23 20 -44 4 -21 13 -41 20 -44 8 -3 17 -22
21 -43 4 -21 15 -54 25 -73 11 -19 19 -40 19 -46 0 -6 11 -37 25 -68 14 -31
25 -67 25 -80 0 -13 6 -29 14 -35 8 -7 18 -31 21 -54 4 -22 15 -64 25 -91 9
-28 20 -73 24 -99 4 -26 14 -63 22 -82 8 -19 17 -70 21 -112 3 -45 14 -93 25
-113 14 -28 18 -57 18 -142 0 -74 7 -138 21 -201 19 -82 20 -116 17 -317 -3
-150 -8 -232 -16 -247 -7 -13 -15 -71 -18 -130 -7 -164 -13 -214 -28 -228 -7
-8 -16 -48 -19 -94 -4 -44 -13 -94 -21 -110 -8 -15 -18 -57 -22 -92 -4 -35
-13 -73 -20 -84 -7 -11 -16 -40 -20 -65 -4 -25 -15 -61 -26 -80 -10 -19 -18
-44 -18 -55 0 -11 -8 -36 -19 -55 -10 -19 -22 -51 -26 -70 -4 -19 -11 -41 -16
-50 -5 -8 -31 -67 -59 -130 -98 -221 -292 -569 -361 -645 -10 -11 -35 -46 -56
-77 -58 -85 -306 -373 -386 -448 -39 -36 -98 -87 -132 -115 -34 -27 -91 -75
-126 -106 -190 -167 -491 -346 -859 -512 -79 -36 -265 -101 -318 -112 -18 -4
-45 -13 -60 -21 -15 -8 -41 -14 -59 -14 -18 0 -54 -9 -80 -19 -27 -10 -84 -22
-128 -26 -44 -4 -90 -14 -103 -22 -17 -10 -74 -17 -195 -23 -95 -5 -216 -14
-269 -20 -75 -9 -121 -9 -200 0 -57 7 -176 15 -265 19 -99 4 -167 12 -176 19
-7 6 -49 17 -93 23 -94 13 -277 56 -319 74 -16 7 -64 23 -105 35 -303 88 -743
318 -1023 533 -230 178 -375 310 -502 461 -78 93 -117 138 -153 177 -34 38
-84 108 -220 309 -134 200 -371 701 -398 845 -3 19 -10 37 -14 40 -5 3 -14 31
-20 63 -7 31 -18 68 -25 82 -7 14 -16 50 -20 80 -4 30 -14 73 -22 94 -7 22
-18 80 -23 129 -5 49 -14 95 -21 103 -6 8 -15 80 -20 171 -5 87 -14 183 -19
213 -21 111 -23 260 -5 370 9 58 19 170 22 250 3 107 9 157 22 190 10 25 22
81 25 124 4 44 13 91 21 105 7 15 16 49 20 76 4 28 15 76 26 108 10 31 19 64
19 73 0 9 6 30 14 47 8 18 24 64 36 102 101 325 368 817 585 1081 27 34 66 82
86 107 64 81 162 187 174 187 8 0 14 -30 17 -91z m336 26 c137 -48 357 -107
447 -120 27 -4 61 -13 75 -20 15 -7 87 -16 175 -20 126 -6 160 -11 213 -32 45
-18 66 -22 75 -15 7 6 54 11 104 11 53 -1 114 6 145 14 29 9 112 18 183 22 72
3 152 13 179 20 27 8 87 20 134 25 47 6 93 15 103 20 9 6 50 14 91 20 40 6 88
18 106 28 24 12 35 14 40 5 4 -6 6 -549 4 -1207 l-2 -1196 -1251 0 c-1385 1
-1282 -5 -1239 67 24 41 47 81 81 141 12 20 29 48 39 62 47 66 170 313 198
395 54 160 62 194 62 260 0 40 9 97 21 139 17 57 20 88 17 157 -3 47 -10 94
-15 105 -6 10 -14 78 -17 149 -5 84 -13 141 -22 160 -9 17 -20 75 -25 129 -5
55 -16 113 -24 130 -7 17 -16 64 -19 104 -3 40 -13 86 -21 102 -8 16 -19 67
-24 113 -4 45 -13 92 -19 104 -7 11 -14 45 -18 74 -5 46 -3 58 16 82 14 18 29
27 39 23 9 -3 76 -26 149 -51z m4521 11 c12 -15 9 -39 -15 -112 -7 -23 -14
-66 -15 -95 -1 -30 -10 -71 -20 -92 -12 -24 -19 -59 -19 -95 0 -62 -14 -122
-30 -132 -5 -3 -14 -44 -18 -91 -5 -47 -15 -95 -21 -108 -7 -13 -17 -71 -23
-129 -5 -58 -16 -119 -25 -135 -12 -25 -15 -76 -14 -303 1 -248 3 -279 21
-327 11 -28 20 -66 20 -83 0 -62 121 -330 240 -534 47 -80 100 -171 118 -202
l32 -58 -277 0 c-153 1 -453 5 -668 10 -214 5 -653 14 -975 20 -322 6 -595 14
-607 16 l-23 4 0 1196 c0 1348 -9 1223 83 1186 29 -11 79 -23 112 -27 33 -4
65 -10 70 -15 6 -4 48 -13 95 -19 47 -7 103 -18 126 -26 22 -7 87 -16 144 -20
57 -3 109 -10 114 -14 49 -39 623 -40 670 -2 6 5 50 12 96 15 101 6 113 8 210
30 145 33 275 68 314 85 16 6 49 16 74 22 26 5 52 14 58 20 12 10 81 26 120
28 12 1 27 -5 33 -13z m-2447 -3328 c3 -409 4 -761 3 -783 -2 -22 -3 -413 -4
-868 -1 -715 -3 -828 -16 -833 -8 -3 -33 3 -57 14 -27 13 -72 22 -123 25 -44
3 -96 12 -115 20 -19 8 -64 18 -98 21 -35 4 -76 12 -90 18 -15 6 -63 19 -107
28 -101 23 -178 44 -235 64 -25 8 -85 29 -135 45 -259 86 -551 213 -740 321
-22 13 -51 29 -65 36 -55 30 -224 143 -317 214 -162 123 -386 354 -488 504
-79 114 -215 399 -215 449 0 8 -7 32 -16 53 -9 22 -20 89 -25 150 -4 61 -13
123 -19 138 -13 34 -13 128 0 181 5 22 13 92 16 155 4 74 13 132 25 163 10 26
17 47 15 47 -8 0 54 222 77 274 9 21 17 46 17 56 0 10 6 23 14 29 8 7 17 23
20 37 8 31 64 154 78 172 8 9 281 12 1303 12 l1292 0 5 -742z m1663 718 c286
-7 643 -14 794 -15 151 -1 278 -4 283 -7 29 -18 198 -481 198 -544 0 -14 9
-51 20 -83 18 -52 20 -82 20 -367 0 -292 -1 -311 -20 -342 -11 -18 -20 -44
-20 -56 0 -27 -53 -185 -84 -252 -34 -71 -96 -179 -150 -260 -59 -89 -393
-428 -478 -486 -192 -131 -261 -175 -328 -210 -41 -21 -77 -42 -80 -45 -3 -3
-36 -21 -75 -39 -38 -18 -78 -36 -87 -41 -123 -62 -240 -111 -290 -123 -16 -3
-28 -10 -28 -15 0 -5 -15 -13 -32 -16 -18 -4 -53 -15 -78 -25 -55 -22 -158
-54 -416 -129 -39 -12 -80 -21 -93 -21 -12 0 -47 -8 -79 -18 -31 -11 -93 -25
-137 -31 -44 -7 -87 -17 -97 -22 -9 -5 -67 -13 -129 -19 -70 -6 -116 -14 -121
-22 -6 -10 -10 -10 -18 2 -11 18 -14 3192 -3 3205 9 9 784 0 1528 -19z"/>
<path d="M4712 8073 l3 -188 80 -3 c108 -4 185 5 185 24 0 15 -1 15 -128 18
-97 3 -103 8 -100 81 l3 50 103 3 c80 2 102 6 102 17 0 11 -21 15 -97 17 l-98
3 -9 48 c-15 74 -6 81 105 87 134 7 115 24 -31 28 l-120 3 2 -188z"/>
<path d="M5079 8231 c-22 -22 -29 -39 -29 -68 0 -21 4 -43 8 -48 16 -24 82
-53 133 -60 30 -4 60 -12 67 -17 40 -33 -19 -118 -82 -118 -29 0 -41 7 -72 45
-21 24 -41 42 -46 39 -17 -11 -7 -55 20 -84 22 -26 37 -32 82 -36 104 -10 169
54 149 148 -9 41 -14 47 -40 52 -16 3 -42 9 -58 12 -16 3 -35 12 -42 20 -6 8
-24 14 -39 14 -50 0 -60 38 -22 83 10 11 30 17 59 17 45 0 80 -24 109 -75 17
-30 34 -10 23 28 -15 55 -50 77 -125 77 -59 0 -68 -3 -95 -29z"/>
<path d="M5360 8245 c0 -10 15 -15 58 -17 l57 -3 3 -172 c2 -166 3 -173 23
-173 19 0 20 5 18 164 -1 90 2 169 5 175 4 6 34 11 67 11 46 0 59 3 59 15 0
13 -23 15 -145 15 -120 0 -145 -2 -145 -15z"/>
<path d="M5646 7945 c-10 -27 4 -66 23 -63 22 5 23 71 0 76 -9 2 -19 -4 -23
-13z"/>
<path d="M2137 5507 c-55 -37 -73 -79 -60 -141 11 -53 50 -81 111 -81 58 0 72
-8 65 -38 -15 -61 -79 -76 -131 -32 -38 32 -44 31 -40 -2 4 -32 58 -73 97 -73
73 0 141 97 141 202 0 81 -29 140 -86 173 -23 14 -44 25 -46 24 -2 0 -24 -15
-51 -32z m91 -43 c19 -13 22 -24 22 -75 0 -56 -1 -59 -25 -60 -74 -4 -83 -2
-101 26 -20 31 -12 68 21 101 28 28 52 30 83 8z"/>
<path d="M1904 5487 c-17 -18 -43 -40 -57 -50 -15 -10 -27 -27 -27 -37 0 -26
16 -26 30 0 6 11 19 20 30 20 18 0 20 -9 22 -132 3 -132 3 -133 27 -136 13 -2
26 1 30 6 3 6 6 88 6 183 0 195 -4 205 -61 146z"/>
<path d="M7910 5485 c-23 -28 -30 -86 -13 -118 14 -28 13 -32 -6 -58 -31 -42
-36 -81 -15 -124 37 -79 148 -86 216 -14 l38 40 77 -3 78 -3 3 -42 c5 -69 42
-53 42 17 0 20 6 31 20 35 26 8 25 22 -1 43 -18 15 -20 29 -22 130 -1 99 -3
112 -18 112 -10 0 -21 -9 -24 -20 -3 -11 -10 -20 -15 -20 -5 0 -21 -25 -37
-56 -15 -30 -35 -63 -43 -72 -8 -9 -23 -29 -33 -44 -22 -35 -33 -34 -75 1 -28
24 -31 32 -23 52 5 13 18 32 29 43 l21 18 -25 49 -24 49 -69 0 c-48 0 -72 -4
-81 -15z m114 -31 c23 -22 20 -71 -3 -84 -26 -14 -64 -13 -79 2 -15 15 -16 53
-2 79 13 23 62 26 84 3z m264 -123 c2 -29 -1 -58 -7 -65 -15 -18 -81 -8 -81
13 0 26 59 113 73 108 7 -2 13 -26 15 -56z m-238 -56 c29 -26 25 -58 -12 -94
-60 -58 -122 -31 -116 50 2 35 8 46 28 56 32 16 75 10 100 -12z"/>
<path d="M4016 7286 c-22 -40 -60 -55 -85 -31 -24 20 -38 19 -46 -5 -6 -19
-17 -20 -228 -22 l-221 -3 -33 -68 c-39 -79 -45 -131 -18 -151 15 -11 19 -31
22 -122 3 -60 11 -126 19 -147 8 -21 12 -42 9 -47 -3 -4 -28 -11 -55 -15 -56
-8 -65 -15 -56 -51 4 -16 19 -29 44 -39 20 -9 56 -37 80 -64 37 -44 42 -55 42
-99 0 -41 -7 -58 -40 -106 -65 -93 -90 -149 -90 -205 0 -41 -5 -54 -31 -82
-44 -48 -49 -61 -49 -139 0 -51 6 -82 20 -110 11 -22 20 -55 20 -75 0 -31 16
-69 78 -182 19 -34 13 -44 -56 -83 -34 -19 -62 -40 -62 -46 0 -6 33 -17 73
-23 39 -7 81 -19 91 -27 11 -7 41 -14 67 -14 30 0 55 -6 71 -19 43 -34 98 -43
154 -25 27 9 56 22 64 29 21 17 111 65 121 65 5 0 9 -31 9 -69 0 -60 11 -93
26 -79 2 3 7 39 10 81 l7 76 51 17 c28 9 85 34 126 54 166 85 178 88 286 92
92 3 104 5 137 31 20 15 37 36 37 47 0 20 44 60 66 60 8 0 14 4 14 9 0 5 -45
57 -100 116 l-100 107 0 54 c0 29 5 56 10 59 6 3 10 21 10 40 0 19 -4 37 -10
40 -5 3 -10 45 -10 93 0 70 4 93 20 117 26 40 25 86 -2 121 -17 21 -23 41 -23
84 l0 55 50 3 c88 4 97 8 93 45 -3 32 -3 32 -67 37 -64 5 -65 5 -74 40 -5 19
-17 43 -28 53 -16 15 -19 32 -19 98 0 94 -19 140 -82 200 l-41 38 22 51 c25
57 18 80 -24 80 -12 0 -35 12 -50 26 -24 22 -34 25 -68 20 -22 -4 -51 -16 -65
-26 -45 -36 -81 -22 -91 34 l-6 37 -19 -35z m-106 -1122 c9 -159 14 -295 12
-301 -3 -9 -25 -13 -63 -13 l-59 0 0 33 c0 48 -10 76 -29 81 -9 3 -35 10 -57
15 -37 10 -43 15 -48 47 -4 19 -14 38 -22 41 -18 7 -18 27 1 43 8 7 15 25 15
40 0 15 -7 33 -15 40 -20 17 -19 33 4 47 12 7 21 26 23 45 3 32 5 33 61 42
l57 8 0 42 c0 23 6 50 13 58 11 15 56 28 82 23 6 -1 16 -118 25 -291z m219
271 c7 -7 16 -33 18 -58 5 -43 7 -45 43 -51 66 -10 115 -89 92 -149 -7 -20 -8
-37 -1 -55 10 -27 -3 -103 -23 -129 -5 -7 -31 -15 -56 -19 -54 -8 -62 -16 -62
-65 0 -19 -5 -40 -12 -47 -16 -16 -118 -16 -119 1 0 6 0 140 1 297 1 204 5
287 13 292 17 10 89 -2 106 -17z"/>
<path d="M3738 6269 c-22 -13 -24 -65 -3 -73 9 -3 36 -3 60 1 44 6 45 6 45 44
l0 39 -42 0 c-24 0 -51 -5 -60 -11z"/>
<path d="M3718 6103 c-11 -55 23 -87 86 -81 30 3 31 5 31 48 l0 45 -57 3 c-48
2 -57 0 -60 -15z"/>
<path d="M4100 6260 c-19 -36 -4 -58 45 -66 76 -11 94 9 54 60 -26 33 -83 37
-99 6z"/>
<path d="M4102 6068 c3 -41 5 -43 36 -46 47 -5 82 21 82 58 0 30 0 30 -61 30
l-60 0 3 -42z"/>
<path d="M6322 7065 c-30 -27 -49 -57 -73 -118 -27 -71 -32 -97 -36 -197 -5
-150 -10 -180 -30 -180 -14 0 -15 19 -11 171 4 105 10 175 17 182 13 13 15 47
2 47 -11 0 -61 -75 -61 -92 0 -6 -10 -22 -22 -36 -22 -22 -23 -33 -26 -203 -3
-146 -6 -179 -18 -179 -8 0 -15 7 -15 15 -1 8 -3 20 -4 25 -1 6 -3 17 -4 26 0
8 -5 13 -10 10 -31 -19 -43 166 -15 223 9 18 14 34 11 37 -7 7 -52 -56 -87
-122 -28 -54 -31 -68 -31 -151 0 -85 2 -97 32 -150 17 -32 49 -76 70 -98 41
-43 51 -75 23 -75 -18 0 -120 56 -129 71 -4 5 -13 9 -21 9 -24 0 -19 -112 6
-135 17 -15 20 -31 20 -99 0 -55 5 -91 16 -111 9 -16 20 -71 24 -121 5 -54 14
-101 24 -115 9 -14 18 -59 22 -109 3 -47 13 -100 22 -119 9 -19 18 -50 21 -70
l6 -36 139 -3 c101 -2 142 1 147 10 4 6 11 39 14 72 4 34 13 72 20 86 7 14 16
48 19 75 4 28 16 77 27 109 10 33 19 71 19 86 0 15 7 47 16 71 9 24 22 73 30
109 7 36 19 88 27 116 8 28 17 70 18 95 l4 44 -62 -2 -62 -3 15 28 c7 15 14
31 14 35 0 5 10 23 22 39 18 26 22 45 22 117 1 79 -2 93 -38 176 -53 121 -97
271 -90 304 3 14 13 46 22 71 32 86 10 116 -46 65z m-202 -675 c0 -5 -7 -10
-15 -10 -8 0 -15 5 -15 10 0 6 7 10 15 10 8 0 15 -4 15 -10z"/>
<path d="M3040 4852 c-14 -2 -49 -13 -78 -25 -39 -15 -57 -30 -68 -52 -8 -16
-37 -61 -65 -100 -57 -80 -181 -264 -189 -282 -3 -6 -22 -35 -43 -65 -21 -29
-64 -92 -95 -140 -31 -47 -88 -132 -127 -188 -38 -56 -74 -110 -80 -118 -5 -9
-27 -42 -47 -74 -21 -31 -38 -59 -38 -61 0 -18 76 -45 141 -50 41 -4 95 -13
119 -22 25 -9 83 -24 130 -34 151 -33 411 -130 430 -160 3 -5 32 -23 65 -40
33 -18 68 -41 78 -53 22 -26 23 -103 2 -124 -21 -21 -19 -37 9 -63 l25 -23 41
41 c23 23 44 41 46 41 3 0 20 -15 37 -34 21 -21 49 -38 77 -45 25 -7 61 -18
80 -27 47 -19 98 -24 113 -10 7 6 32 26 56 45 41 32 45 33 104 26 33 -3 73
-13 87 -20 15 -8 51 -17 81 -21 30 -4 59 -10 64 -14 6 -5 36 -16 68 -25 33 -9
84 -29 115 -44 32 -15 73 -34 92 -41 19 -8 141 -67 271 -132 129 -65 239 -118
242 -118 4 0 7 37 7 83 1 45 8 116 16 157 8 41 18 136 22 211 6 96 12 143 23
160 11 16 18 62 23 144 3 66 13 161 21 210 9 50 18 146 21 215 5 113 4 128
-14 156 -50 78 -316 265 -417 293 -22 6 -49 18 -59 26 -11 8 -35 15 -53 15
-19 0 -54 9 -78 20 -38 17 -66 20 -194 21 l-149 0 -44 33 c-126 94 -159 116
-223 149 -84 43 -163 77 -179 77 -6 0 -28 9 -49 20 -21 11 -72 25 -115 31 -42
5 -91 14 -107 19 -31 10 -151 17 -195 12z m302 -93 c20 -5 40 -14 43 -19 3 -6
20 -10 37 -10 27 0 135 -44 213 -87 17 -9 46 -24 65 -34 52 -26 170 -105 211
-141 31 -28 43 -32 80 -29 24 1 52 7 63 13 12 7 21 7 25 0 3 -5 62 -13 131
-17 116 -6 180 -19 180 -37 0 -5 16 -8 35 -8 26 0 43 -7 60 -26 16 -17 30 -24
41 -20 10 4 29 -5 50 -24 19 -16 39 -30 45 -30 6 0 45 -27 88 -61 130 -104
124 -97 117 -132 -4 -18 -6 -46 -6 -63 0 -17 -4 -44 -11 -60 -6 -16 -14 -90
-19 -164 -5 -74 -16 -166 -24 -205 -8 -38 -16 -115 -17 -170 -3 -115 -6 -135
-24 -135 -12 0 -137 71 -197 112 -15 10 -34 18 -41 18 -8 0 -25 8 -38 19 -13
10 -39 22 -58 26 -18 4 -40 14 -50 24 -9 9 -22 16 -28 17 -7 1 -24 2 -38 3
-14 0 -33 9 -43 19 -11 11 -40 21 -71 25 -28 3 -61 13 -73 22 -13 8 -38 15
-58 15 -49 1 -123 19 -132 33 -5 8 -49 13 -130 15 l-123 4 -45 37 c-25 21 -58
44 -75 53 -16 8 -78 40 -137 71 -60 32 -114 57 -122 57 -7 0 -19 7 -26 15 -7
8 -28 17 -49 21 -20 3 -41 12 -46 19 -6 7 -31 18 -55 25 -25 7 -50 16 -57 22
-7 5 -38 16 -70 23 -32 7 -76 20 -98 29 -22 8 -63 15 -91 16 -45 0 -173 36
-191 53 -3 4 1 15 9 24 9 10 24 34 33 53 10 19 21 37 24 40 3 3 18 23 32 45
14 22 66 101 114 175 82 124 100 153 149 233 29 47 37 23 35 -102 -1 -65 1
-123 5 -130 8 -12 35 -15 60 -5 11 4 16 19 16 43 0 45 7 54 31 40 14 -7 19
-21 19 -49 0 -38 2 -40 29 -40 29 0 61 22 61 41 0 20 30 7 36 -15 10 -41 36
-56 104 -60 44 -3 66 -9 72 -20 5 -8 27 -20 49 -26 22 -6 61 -24 87 -40 94
-59 83 -60 151 12 35 38 84 77 118 95 32 16 59 38 61 47 3 14 -8 16 -82 16
l-86 0 0 33 c0 23 -8 40 -25 55 -14 12 -25 26 -25 32 0 5 -6 10 -14 10 -11 0
-14 -27 -18 -123 -5 -146 -11 -162 -44 -113 -14 20 -29 36 -33 36 -15 0 -22
66 -11 95 5 14 17 33 25 41 19 20 19 39 -1 69 -33 50 -74 38 -74 -22 0 -27 -4
-34 -17 -31 -12 2 -19 14 -21 34 -5 49 -59 95 -111 96 -35 0 -49 -6 -76 -32
-19 -18 -37 -46 -40 -62 -4 -15 -10 -28 -15 -28 -8 0 -14 20 -25 98 -7 41 -8
43 -38 40 -29 -3 -32 -6 -35 -43 -7 -79 -49 -84 -54 -7 l-3 47 -37 -1 c-42 -1
-49 9 -18 26 11 6 18 15 15 20 -3 4 1 15 9 23 12 11 41 13 148 10 73 -2 150
-8 170 -14z m28 -230 c0 -60 -20 -80 -58 -58 -15 8 -28 24 -30 36 -3 20 29 78
53 95 17 13 35 -24 35 -73z m747 -65 c-3 -3 -12 -4 -19 -1 -8 3 -5 6 6 6 11 1
17 -2 13 -5z"/>
<path d="M3925 4368 c-2 -7 -6 -38 -9 -68 -3 -30 -9 -77 -13 -105 -10 -56 -6
-88 8 -79 6 3 16 1 23 -5 7 -6 26 -10 42 -10 16 1 39 -2 52 -6 17 -6 22 -3 22
9 0 22 32 20 72 -4 22 -13 51 -20 88 -20 32 0 63 -7 74 -15 10 -8 22 -12 27
-10 11 7 59 -15 92 -42 16 -13 36 -23 45 -23 10 0 45 -27 80 -59 80 -75 111
-89 146 -66 14 10 26 21 26 27 0 12 -52 57 -67 58 -16 0 -17 40 -2 40 6 0 19
-10 28 -22 13 -15 24 -19 42 -14 41 11 88 58 94 95 5 29 1 38 -35 72 -39 37
-94 57 -125 46 -8 -4 -31 -29 -51 -57 -58 -81 -91 -86 -101 -14 -4 31 1 46 21
73 41 55 32 151 -12 125 -26 -17 -71 -5 -89 22 -10 16 -25 24 -45 24 -16 0
-42 9 -56 21 -25 19 -27 20 -40 2 -12 -17 -14 -17 -23 0 -7 11 -22 17 -49 17
-37 0 -39 -2 -45 -37 -12 -73 -16 -84 -28 -80 -7 2 -12 12 -13 23 0 10 -4 36
-8 57 l-7 37 -80 0 c-55 0 -81 -4 -84 -12z m765 -308 c0 -11 -4 -20 -9 -20
-14 0 -23 18 -16 30 10 17 25 11 25 -10z"/>
<path d="M2961 4331 c-16 -11 -6 -31 16 -31 8 0 23 -10 33 -23 12 -16 30 -24
57 -25 21 -1 50 -11 65 -22 15 -11 43 -20 63 -20 22 0 38 -6 41 -14 3 -8 30
-20 60 -27 29 -7 61 -20 70 -31 11 -11 31 -18 56 -18 21 0 38 -4 38 -8 0 -11
60 -32 91 -32 13 0 30 -9 37 -20 8 -13 23 -20 42 -20 28 0 30 3 30 34 0 42 -4
45 -66 51 -30 2 -53 11 -61 21 -6 9 -27 18 -45 19 -18 2 -39 3 -46 4 -7 1 -20
10 -29 21 -11 12 -30 20 -49 20 -18 0 -38 8 -48 19 -10 11 -36 21 -62 24 -25
2 -53 12 -62 20 -9 8 -38 18 -64 22 -26 4 -54 16 -64 26 -18 20 -78 26 -103
10z"/>
<path d="M2919 4193 c-12 -14 -12 -17 0 -21 11 -4 11 -6 0 -13 -19 -12 3 -26
55 -35 22 -3 46 -12 53 -20 7 -7 35 -16 61 -20 26 -4 52 -14 59 -24 7 -10 31
-19 58 -22 28 -4 51 -13 59 -24 9 -12 26 -18 49 -17 22 1 43 -6 55 -18 11 -10
43 -21 70 -25 38 -5 52 -11 55 -26 5 -16 13 -19 63 -16 32 2 59 8 61 13 2 6
-14 19 -34 30 -21 11 -41 24 -44 28 -4 5 -23 9 -43 9 -24 0 -41 6 -49 18 -8
12 -30 20 -61 23 -32 4 -52 12 -62 25 -8 12 -30 21 -59 25 -25 4 -55 13 -68
21 -12 7 -38 17 -59 20 -20 4 -38 13 -41 20 -3 7 -28 16 -55 20 -30 4 -56 14
-67 26 -22 24 -38 25 -56 3z"/>
<path d="M4014 3938 c-4 -6 1 -17 12 -24 10 -7 26 -19 34 -27 8 -8 33 -17 55
-21 22 -4 49 -13 60 -20 11 -7 37 -16 57 -20 21 -4 41 -13 46 -21 4 -8 28 -18
52 -21 25 -4 56 -15 69 -25 13 -11 33 -19 45 -19 11 0 43 -11 70 -25 27 -14
57 -25 65 -25 9 0 30 -9 46 -20 32 -21 70 -26 80 -10 3 5 3 20 -1 34 -6 25
-46 46 -86 46 -11 0 -31 9 -45 20 -15 11 -41 20 -61 20 -23 0 -44 8 -59 22
-14 13 -35 21 -55 20 -20 0 -37 6 -45 17 -7 11 -32 22 -60 26 -26 4 -58 15
-71 26 -14 10 -36 19 -51 19 -14 0 -39 9 -56 20 -33 22 -90 27 -101 8z"/>
<path d="M3970 3803 c0 -27 45 -64 82 -67 18 -2 53 -12 78 -24 25 -12 55 -22
67 -22 12 0 27 -8 32 -19 7 -12 25 -20 56 -23 25 -3 54 -13 63 -21 10 -9 37
-19 60 -23 23 -4 42 -10 42 -14 0 -10 57 -30 86 -30 13 0 28 -9 34 -20 14 -26
77 -28 87 -4 10 26 -10 48 -58 62 -24 7 -57 19 -74 27 -16 7 -47 16 -68 20
-21 3 -46 14 -56 24 -10 10 -34 21 -55 24 -20 3 -49 15 -64 26 -16 11 -43 19
-61 19 -21 -1 -37 5 -42 15 -6 10 -30 18 -64 22 -41 6 -56 12 -60 26 -9 27
-85 28 -85 2z"/>
<path d="M5920 4841 c-49 -25 -88 -85 -106 -161 -26 -113 -21 -149 32 -213 13
-16 24 -37 24 -46 0 -32 -39 -70 -78 -77 -48 -9 -83 -34 -104 -76 -47 -91
-142 -355 -198 -548 -11 -41 -30 -102 -41 -135 -26 -81 -25 -129 3 -149 28
-20 67 -20 95 -1 19 13 21 26 25 142 4 114 7 134 32 186 15 31 32 57 37 57 15
0 10 -61 -11 -120 -26 -74 -26 -157 -1 -184 17 -18 19 -27 10 -66 -6 -24 -14
-47 -19 -50 -5 -3 -10 -61 -12 -128 -2 -132 1 -142 49 -142 12 0 25 -5 29 -12
5 -7 7 -73 5 -147 -2 -110 -6 -140 -22 -170 -25 -46 -26 -122 -1 -144 22 -20
100 -40 138 -35 l29 3 -5 65 c-3 36 -5 133 -5 216 0 150 0 151 29 192 16 23
34 42 41 42 7 0 31 -24 54 -54 l41 -55 6 -240 c6 -208 10 -245 25 -271 15 -24
26 -30 54 -30 78 0 124 100 75 163 -19 24 -20 40 -20 298 0 245 2 274 18 292
15 17 17 48 20 279 2 196 6 258 15 255 7 -2 44 -44 82 -92 39 -49 95 -115 125
-147 63 -65 95 -75 151 -47 52 26 182 170 221 245 18 35 36 64 41 64 14 0 7
-91 -9 -123 -12 -22 -18 -66 -21 -147 -3 -78 -11 -135 -25 -177 l-20 -63 24
-29 c13 -16 36 -35 51 -42 25 -11 28 -16 23 -43 -4 -17 -15 -49 -26 -71 -11
-22 -22 -67 -25 -100 -4 -33 -14 -81 -22 -106 -15 -43 -15 -50 1 -90 26 -64
32 -69 92 -69 63 0 59 -10 55 152 -3 96 -3 97 44 200 80 176 81 177 87 19 3
-92 8 -124 20 -138 13 -15 17 -47 20 -166 2 -118 6 -150 18 -157 32 -21 159
-5 187 23 15 15 5 30 -56 79 -19 16 -21 28 -21 136 0 66 -3 166 -6 223 l-5
104 48 23 c26 12 62 22 80 22 38 0 63 9 63 22 0 5 -18 48 -41 96 -80 169 -82
177 -89 317 -5 106 -10 139 -29 179 -17 37 -20 51 -11 60 9 8 14 8 17 -2 10
-27 64 -123 81 -143 9 -12 45 -54 80 -93 68 -76 80 -102 62 -135 -14 -28 -5
-41 28 -41 46 0 72 11 72 31 0 34 -61 172 -133 304 -98 177 -130 251 -123 281
8 32 -20 91 -53 112 -14 9 -28 18 -31 19 -2 2 -4 77 -5 166 0 145 -2 166 -21
197 -29 50 -65 65 -154 64 -87 0 -143 -22 -165 -64 -17 -33 -30 -182 -21 -243
4 -25 19 -63 33 -83 14 -21 21 -40 17 -42 -5 -1 -34 -17 -64 -35 -76 -45 -100
-93 -100 -203 0 -78 -2 -86 -46 -170 -104 -199 -125 -219 -214 -205 -29 5 -55
13 -59 18 -3 5 -20 29 -37 53 -17 25 -51 83 -75 130 l-43 85 2 127 3 127 -43
47 c-23 25 -62 59 -85 76 -67 46 -67 79 3 184 36 53 36 55 32 143 -3 80 -6 94
-33 133 -60 85 -139 110 -215 69z"/>
<path d="M2377 8592 c-40 -40 -47 -53 -47 -84 0 -35 8 -54 88 -198 13 -25 31
-56 38 -70 8 -14 14 -31 14 -38 0 -7 7 -24 16 -38 27 -41 10 -37 -51 11 -32
25 -63 45 -67 45 -5 0 -34 20 -65 45 -30 25 -60 45 -66 45 -7 0 -23 9 -37 20
-14 11 -36 20 -49 20 -34 0 -121 -58 -121 -80 0 -31 118 -178 254 -318 121
-124 131 -131 150 -118 12 7 22 23 24 35 2 12 8 19 13 16 5 -4 9 -3 9 1 0 8
-185 216 -239 269 -40 38 -52 65 -30 65 6 0 33 -18 59 -40 26 -22 52 -40 58
-40 6 0 32 -17 59 -39 27 -21 65 -46 84 -56 19 -9 48 -31 66 -48 l32 -30 35
29 c47 39 49 49 26 97 -30 62 -108 208 -119 221 -5 6 -12 22 -16 36 -4 14 -16
33 -26 43 -23 22 -24 36 -4 43 19 8 48 -15 41 -33 -3 -8 2 -13 12 -13 9 -1 34
-25 54 -55 53 -76 169 -205 184 -205 8 0 29 15 47 34 l35 34 -125 129 c-68 70
-147 158 -175 196 -28 37 -54 67 -57 67 -3 0 -11 10 -16 22 -15 35 -36 30 -88
-20z"/>
<path d="M7836 8511 c-7 -11 -144 -81 -159 -81 -7 0 -23 -9 -37 -20 -14 -11
-31 -20 -38 -20 -8 0 -25 -9 -39 -20 -14 -11 -33 -20 -43 -20 -10 0 -28 -9
-42 -19 -13 -11 -36 -23 -51 -26 -14 -4 -31 -13 -38 -21 -6 -8 -29 -17 -50
-20 -22 -4 -39 -9 -39 -13 1 -11 47 -58 68 -70 23 -12 71 1 114 32 14 11 31
18 36 16 5 -2 44 -37 86 -76 l76 -73 0 -55 c0 -40 -4 -57 -15 -61 -29 -11 -15
-44 32 -78 26 -19 50 -33 54 -30 3 2 9 25 13 51 4 27 13 56 21 67 8 10 17 39
21 64 4 24 15 53 25 63 11 11 19 31 19 47 0 15 9 41 20 57 11 17 20 40 20 53
0 26 17 63 33 74 6 3 10 34 9 68 -1 47 -7 68 -24 90 -22 28 -61 39 -72 21z
m-28 -173 c2 -10 -6 -31 -17 -47 -12 -16 -21 -40 -21 -53 0 -32 -27 -68 -50
-68 -29 0 -90 63 -90 92 0 28 13 42 50 53 14 4 36 16 49 27 30 23 74 20 79 -4z"/>
<path d="M8075 8000 c-74 -41 -121 -91 -157 -169 -16 -35 -19 -60 -16 -116 3
-65 6 -75 43 -120 58 -74 101 -107 156 -121 44 -12 54 -11 94 7 24 11 46 23
49 27 3 5 -1 30 -7 56 -12 48 -12 48 -31 27 -14 -16 -31 -21 -67 -21 -42 0
-53 5 -82 34 -45 45 -59 101 -42 166 14 53 39 84 102 123 62 39 116 51 175 37
66 -16 82 -43 85 -138 2 -61 6 -77 25 -97 13 -14 33 -25 44 -25 37 0 48 26 48
113 0 71 -4 88 -28 130 -50 86 -132 127 -249 126 -64 0 -80 -5 -142 -39z"/>
<path d="M1520 7626 c0 -14 -12 -37 -27 -52 -19 -18 -24 -28 -15 -31 7 -3 26
-16 41 -29 16 -13 33 -24 38 -24 5 0 36 -20 67 -45 32 -25 63 -45 68 -45 6 0
31 -17 57 -38 25 -21 57 -43 71 -49 14 -5 45 -27 68 -47 24 -20 51 -36 60 -36
10 0 38 32 66 75 27 41 56 81 64 87 8 7 23 31 32 53 10 22 34 56 53 75 l36 36
-36 29 -37 29 -38 -45 c-22 -24 -47 -60 -58 -79 -10 -19 -34 -53 -52 -74 -34
-39 -35 -40 -69 -26 -19 8 -58 34 -87 57 -29 24 -57 41 -62 38 -6 -3 -31 14
-57 40 -26 25 -53 45 -59 45 -6 0 -29 14 -50 31 -63 50 -74 54 -74 25z"/>
<path d="M8585 7379 c-43 -12 -127 -23 -218 -28 -161 -9 -167 -11 -167 -67 0
-47 20 -58 93 -50 44 4 68 2 80 -6 17 -13 117 -181 117 -197 0 -4 -18 -29 -40
-54 -41 -47 -47 -67 -30 -111 23 -61 78 -20 209 152 35 46 89 111 120 145 116
126 123 147 67 203 -32 32 -38 34 -97 33 -35 0 -95 -9 -134 -20z m98 -111 c2
-7 -11 -30 -29 -50 -18 -20 -43 -55 -56 -77 -13 -23 -28 -41 -34 -41 -16 0
-89 150 -78 160 23 21 190 28 197 8z"/>
<path d="M1304 7305 c-7 -19 -14 -38 -14 -43 0 -5 -6 -15 -14 -21 -8 -7 -18
-25 -21 -41 -3 -15 -14 -35 -25 -45 -10 -9 -21 -32 -24 -50 -4 -19 -14 -38
-23 -43 -11 -7 -16 -26 -17 -68 l-1 -58 39 -7 c21 -3 43 -14 48 -23 5 -9 20
-16 33 -16 13 0 30 -7 38 -15 8 -8 53 -32 100 -55 48 -22 89 -45 92 -50 3 -6
17 -10 30 -10 13 0 36 -11 51 -25 53 -49 63 -40 145 123 40 81 81 158 91 171
10 13 18 31 18 40 -1 18 -44 71 -59 71 -11 0 -34 -41 -105 -187 -30 -62 -61
-113 -68 -113 -8 0 -21 9 -31 20 -9 11 -27 20 -39 20 -43 0 -51 13 -43 71 5
33 15 60 26 70 11 9 19 25 19 36 0 11 9 32 20 46 29 36 26 81 -6 106 -15 12
-29 21 -33 21 -3 0 -17 -24 -30 -52 -13 -29 -34 -75 -47 -101 -13 -27 -24 -57
-24 -66 0 -10 -8 -25 -18 -34 -23 -21 -58 -12 -100 27 -36 34 -37 63 -1 102
10 11 19 30 19 42 0 12 10 32 22 44 13 13 22 28 20 35 -4 19 17 53 33 53 23 0
17 26 -10 44 -42 27 -74 21 -91 -19z"/>
<path d="M9011 6900 c-13 -11 -32 -20 -43 -20 -10 0 -38 -9 -62 -19 -53 -25
-119 -49 -171 -64 -22 -7 -46 -17 -52 -23 -7 -7 -32 -15 -55 -19 -57 -9 -118
-44 -118 -67 0 -10 4 -18 9 -18 4 0 16 -26 26 -57 19 -61 23 -72 73 -168 22
-45 42 -67 76 -89 44 -27 53 -29 137 -27 65 1 95 6 106 16 8 8 26 18 41 21 37
9 103 49 131 78 20 21 64 140 55 148 -2 2 -10 37 -19 76 -8 40 -21 82 -29 95
-7 12 -16 38 -20 57 -7 43 -37 100 -51 100 -5 -1 -21 -10 -34 -20z m11 -165
c6 -14 15 -25 19 -25 8 0 16 -33 24 -101 6 -56 -11 -78 -100 -128 -57 -32 -65
-34 -150 -33 -86 1 -91 2 -112 29 -28 34 -56 114 -51 145 2 17 16 27 53 41 28
11 68 28 91 38 23 11 47 19 55 19 8 1 32 9 54 20 58 28 103 26 117 -5z"/>
<path d="M1035 6691 c-3 -11 -15 -23 -26 -26 -26 -9 -24 -24 5 -35 13 -5 25
-13 27 -19 2 -5 33 -14 68 -20 35 -6 72 -18 82 -27 25 -22 24 -77 -1 -129 -11
-22 -19 -50 -20 -63 0 -13 -4 -31 -10 -41 -12 -23 -55 -17 -87 11 -12 11 -26
18 -31 14 -5 -3 -35 4 -66 15 -32 12 -59 19 -60 17 -2 -1 -6 -22 -9 -46 -5
-41 -4 -44 33 -67 22 -14 58 -28 82 -31 24 -4 53 -14 66 -22 12 -8 43 -19 69
-23 25 -5 53 -15 61 -21 8 -7 45 -20 81 -30 36 -9 85 -22 109 -28 23 -7 44
-11 46 -9 2 2 7 27 11 56 l7 52 -44 11 c-62 17 -139 41 -167 52 -20 7 -22 13
-17 40 3 18 13 39 21 48 9 10 18 40 22 69 3 28 11 55 17 60 15 12 121 -4 149
-22 12 -7 43 -17 69 -20 40 -6 49 -4 58 13 30 56 -7 102 -93 113 -26 4 -57 13
-70 21 -12 7 -42 17 -65 20 -24 4 -50 13 -57 20 -8 7 -34 16 -60 19 -26 4 -58
16 -72 27 -36 28 -119 28 -128 1z"/>
<path d="M9185 6223 c-11 -3 -26 -10 -33 -16 -7 -5 -47 -12 -90 -15 -55 -3
-81 -9 -90 -20 -9 -12 -37 -18 -103 -23 -122 -9 -144 -24 -144 -102 0 -37 6
-61 17 -74 11 -12 19 -44 23 -97 3 -44 11 -89 18 -100 6 -12 16 -37 22 -56 9
-29 16 -35 43 -38 l32 -3 0 79 c0 60 -4 81 -14 85 -9 4 -17 29 -21 71 -9 85
-2 116 29 116 13 0 35 9 49 20 34 27 40 26 69 -12 20 -27 26 -49 31 -116 3
-51 11 -90 20 -100 7 -9 17 -25 20 -35 5 -14 15 -17 39 -15 31 3 33 5 36 46 2
28 -3 53 -12 68 -21 31 -33 163 -17 192 12 23 73 44 99 35 26 -10 32 -24 32
-83 0 -36 7 -68 20 -93 11 -21 20 -56 20 -81 0 -48 9 -55 55 -47 l30 6 -3 75
c-2 48 -10 90 -23 116 -12 25 -19 62 -19 99 0 80 -29 125 -80 124 -19 -1 -44
-4 -55 -6z"/>
<path d="M826 6085 c-3 -9 -6 -51 -6 -92 0 -58 -4 -79 -16 -87 -12 -9 -18 -40
-24 -120 -5 -59 -14 -114 -21 -122 -9 -11 -8 -15 2 -17 8 -2 29 -9 48 -15 19
-6 38 -9 42 -6 5 3 9 41 9 86 0 79 0 80 23 73 12 -4 71 -11 131 -16 76 -5 113
-13 126 -24 13 -11 46 -17 122 -21 l105 -6 6 28 c6 34 -6 69 -27 77 -9 4 -67
12 -128 18 -62 6 -122 17 -133 23 -11 6 -56 13 -100 16 l-80 5 0 97 c0 53 -3
99 -6 102 -3 3 -19 9 -36 12 -23 4 -32 2 -37 -11z"/>
<path d="M8850 5491 c0 -28 4 -52 9 -56 6 -3 62 1 126 10 128 17 291 20 299 6
11 -17 -27 -35 -77 -36 -40 0 -58 -6 -75 -23 -18 -18 -33 -22 -80 -22 -45 0
-61 -4 -75 -20 -13 -16 -29 -20 -72 -20 l-56 0 3 -62 c3 -68 -2 -63 71 -67 9
-1 17 -7 17 -15 0 -15 76 -31 102 -21 22 9 98 -13 104 -29 3 -9 31 -16 74 -20
66 -7 97 -21 68 -30 -29 -10 -132 -16 -280 -16 l-158 0 0 -40 0 -40 289 0
c308 0 307 0 305 50 -1 14 -2 43 -3 66 -1 36 -5 43 -40 62 -26 15 -65 25 -113
28 -52 4 -79 12 -94 25 -11 10 -33 19 -50 19 -63 0 -105 12 -102 29 3 17 40
28 99 30 20 0 42 7 48 15 7 8 38 18 69 22 31 3 64 12 72 19 8 7 36 16 63 19
l47 7 0 80 0 79 -295 0 -295 0 0 -49z"/>
<path d="M740 5231 l0 -231 128 -2 c285 -4 441 -3 446 3 3 3 7 102 8 220 l3
214 -37 3 c-41 3 -57 -14 -58 -64 0 -16 -4 -81 -8 -144 l-7 -115 -75 0 -75 0
4 148 3 147 -56 0 c-67 0 -65 5 -69 -170 l-2 -125 -65 0 -65 0 -1 170 -1 170
-36 3 -37 3 0 -230z"/>
<path d="M1123 4819 c-19 -5 -48 -29 -70 -54 -41 -50 -54 -54 -74 -25 -10 14
-31 21 -75 26 -61 6 -61 6 -97 -31 -41 -43 -62 -102 -53 -155 3 -19 10 -64 15
-100 6 -36 11 -92 11 -124 l0 -59 118 6 c78 3 127 10 147 21 23 12 60 16 157
16 70 0 138 4 151 9 22 9 24 14 20 63 -2 29 -11 81 -19 116 -8 34 -19 96 -23
137 -11 94 -40 139 -98 148 -21 3 -47 8 -58 11 -11 2 -34 0 -52 -5z m130 -234
c5 -63 5 -101 -2 -108 -16 -16 -111 -28 -133 -16 -27 15 -40 54 -41 132 -1 76
15 102 76 123 28 10 36 9 62 -11 28 -21 30 -27 38 -120z m-271 57 c13 -13 17
-194 5 -209 -6 -8 -33 -13 -68 -13 l-59 0 0 110 c0 105 1 111 23 120 24 11 85
6 99 -8z"/>
<path d="M9315 4739 c-60 -32 -116 -59 -124 -59 -8 0 -25 -9 -37 -21 -21 -19
-35 -21 -181 -23 l-158 -1 0 -35 c0 -31 4 -37 45 -57 34 -16 64 -22 121 -22
76 -1 77 -1 136 -48 32 -27 81 -70 109 -97 61 -61 101 -86 137 -86 25 0 27 3
27 39 0 32 -8 48 -46 90 -25 28 -52 51 -60 51 -8 0 -14 4 -14 9 0 5 -20 17
-45 27 -25 9 -45 22 -45 28 0 10 61 56 85 64 6 2 47 20 93 40 l82 36 0 63 c0
35 -3 62 -7 62 -5 -1 -57 -28 -118 -60z"/>
<path d="M918 2734 c-4 -4 -2 -12 6 -18 13 -11 46 -68 126 -223 21 -39 45 -82
54 -94 9 -13 16 -31 16 -41 0 -9 8 -25 19 -35 10 -10 21 -30 25 -46 4 -15 15
-36 26 -47 11 -11 20 -31 20 -44 0 -14 9 -31 19 -38 11 -8 23 -27 27 -43 4
-17 15 -38 25 -48 25 -24 25 -72 0 -89 -11 -8 -22 -26 -25 -41 -2 -14 -23 -45
-45 -69 -23 -23 -41 -52 -41 -63 0 -12 -10 -30 -22 -42 -36 -31 -68 -76 -68
-94 0 -9 -9 -24 -20 -34 -44 -40 -29 -45 123 -45 131 0 143 -2 155 -20 9 -15
23 -20 58 -20 28 0 59 -8 78 -19 17 -11 48 -22 68 -25 21 -3 55 -15 75 -26 21
-11 52 -20 69 -20 17 0 37 -6 43 -14 7 -8 42 -19 79 -26 37 -6 72 -16 80 -22
7 -6 50 -11 95 -12 l82 -1 -3 105 c-2 58 -10 130 -19 160 -10 38 -17 124 -20
275 -4 168 -9 228 -21 255 -10 23 -16 73 -18 145 l-3 110 -33 17 c-18 10 -64
27 -103 39 -38 11 -83 27 -100 34 -16 7 -57 23 -90 35 -33 13 -86 33 -118 46
-32 13 -62 24 -67 24 -5 0 -21 5 -37 12 -33 14 -30 12 -68 23 -16 5 -48 16
-70 26 -22 10 -54 19 -71 19 -17 0 -46 8 -65 18 -36 18 -227 31 -241 16z"/>
<path d="M9135 2733 c-16 -2 -50 -10 -75 -18 -25 -8 -69 -17 -99 -19 -29 -3
-60 -11 -70 -19 -9 -8 -36 -18 -61 -22 -24 -4 -54 -13 -65 -20 -11 -7 -40 -19
-65 -26 -25 -7 -54 -18 -65 -25 -11 -7 -36 -15 -55 -19 -19 -4 -41 -11 -50
-16 -27 -15 -194 -69 -212 -69 -10 0 -35 -9 -55 -20 -21 -11 -49 -20 -64 -20
-60 0 -76 -54 -83 -275 -3 -120 -10 -193 -19 -220 -9 -25 -17 -103 -21 -210
-4 -93 -13 -192 -21 -220 -7 -27 -17 -71 -20 -97 l-7 -48 98 0 c65 1 113 6
139 16 22 9 63 19 90 23 28 4 68 15 90 23 22 9 61 22 88 28 26 7 50 17 53 21
3 5 15 9 27 9 12 0 45 11 72 23 28 13 74 27 104 30 29 4 64 13 77 22 17 11 50
15 123 15 143 0 155 8 101 70 -16 19 -29 40 -30 46 0 10 -100 165 -150 232
-39 52 -34 86 28 202 30 58 62 119 70 135 9 17 45 84 82 150 37 66 81 146 99
178 18 32 38 76 46 97 l13 38 -30 6 c-17 3 -36 5 -42 5 -6 -1 -24 -4 -41 -6z"/>
<path d="M2120 2427 c1 -14 90 -77 109 -77 8 0 11 14 9 43 l-3 42 -57 2 c-40
2 -58 -2 -58 -10z"/>
<path d="M7946 2424 c-9 -22 -7 -62 2 -68 13 -8 107 48 110 67 3 14 -5 17 -51
17 -41 0 -56 -4 -61 -16z"/>
<path d="M2080 2281 c0 -27 7 -83 16 -123 9 -43 19 -162 24 -293 5 -148 13
-238 24 -275 9 -30 16 -79 16 -109 0 -48 3 -57 35 -86 19 -19 58 -47 87 -64
29 -18 60 -36 68 -41 26 -15 234 -134 262 -150 15 -8 83 -47 150 -87 207 -120
453 -237 813 -386 254 -105 721 -234 915 -252 36 -4 92 -13 125 -21 89 -20
763 -19 820 2 22 8 88 19 147 24 59 5 117 14 129 20 11 7 50 16 84 21 35 5 92
18 127 28 35 11 108 32 163 47 55 15 116 32 135 39 19 7 67 23 105 35 39 12
95 32 125 45 30 13 107 45 170 71 248 102 583 267 830 410 19 12 62 36 95 54
150 83 343 203 371 230 47 45 56 87 63 290 5 134 10 192 21 210 11 18 16 69
18 188 2 89 1 162 -2 162 -10 0 -139 -86 -170 -113 -17 -14 -33 -24 -38 -21
-5 3 -27 -10 -49 -30 -23 -19 -55 -42 -73 -51 -17 -8 -85 -49 -151 -90 -131
-81 -206 -125 -274 -161 -24 -13 -49 -28 -56 -34 -21 -18 -281 -149 -440 -222
-214 -99 -577 -238 -619 -238 -12 0 -39 -9 -61 -20 -22 -11 -54 -20 -72 -20
-19 0 -44 -7 -56 -15 -13 -8 -56 -19 -97 -25 -41 -6 -88 -17 -105 -24 -16 -7
-71 -16 -121 -20 -50 -4 -121 -15 -158 -26 -62 -17 -102 -19 -423 -19 -323 0
-361 2 -409 19 -30 10 -96 22 -146 26 -51 4 -106 13 -123 19 -16 7 -64 18
-105 25 -41 7 -79 16 -85 20 -5 4 -26 11 -45 14 -91 18 -386 118 -505 171 -16
8 -66 28 -110 46 -84 35 -462 222 -530 264 -22 13 -74 43 -115 66 -41 24 -110
64 -153 91 -43 26 -80 48 -83 48 -2 0 -78 51 -170 113 -91 61 -189 128 -217
147 -29 19 -77 54 -108 78 -31 23 -59 42 -62 42 -4 0 -7 -22 -7 -49z m379
-289 c13 -25 -26 -105 -116 -237 -70 -102 -94 -119 -116 -83 -9 13 3 36 61
120 40 57 87 129 105 160 34 61 50 70 66 40z m5350 -166 c22 -23 3 -36 -53
-36 -55 0 -76 -12 -76 -42 0 -27 30 -35 46 -13 9 13 31 20 68 23 48 4 57 1 80
-21 44 -44 31 -118 -27 -152 -49 -29 -158 -23 -171 10 -8 21 31 35 99 35 45 0
56 4 65 21 23 43 -14 66 -52 32 -24 -21 -122 -30 -143 -13 -20 16 -20 92 0
130 9 18 26 32 43 36 15 3 32 7 37 9 18 7 69 -5 84 -19z m-5273 -21 c72 -43
104 -78 104 -113 0 -16 -21 -59 -50 -102 -72 -110 -74 -111 -110 -99 -28 10
-43 39 -20 39 8 0 66 81 113 157 10 15 -23 51 -53 58 -21 5 -28 0 -44 -27 -39
-67 -107 -138 -133 -138 -21 0 -23 3 -17 22 3 12 35 64 70 115 35 52 64 100
64 108 0 22 11 19 76 -20z m5060 -60 c3 -8 -6 -29 -20 -46 -33 -38 -28 -64 25
-141 48 -71 52 -131 7 -113 -20 9 -148 210 -148 234 0 15 15 31 47 51 52 33
81 38 89 15z m-4792 -20 c0 -16 -90 -162 -149 -241 -6 -9 -4 -19 9 -33 14 -16
15 -23 6 -41 -9 -17 -17 -20 -38 -15 -70 17 -71 55 -3 160 14 22 33 60 42 85
25 71 135 141 133 85z m4637 -137 c111 -114 100 -228 -24 -269 -33 -11 -43
-10 -71 5 -70 37 -114 128 -101 207 5 28 15 43 43 62 74 50 101 49 153 -5z
m-4506 -36 c36 -25 40 -32 43 -77 4 -68 14 -74 66 -46 29 16 51 22 69 18 31
-8 127 -83 127 -100 0 -6 -14 -37 -30 -67 -16 -30 -45 -86 -63 -125 -19 -38
-42 -77 -52 -85 -28 -23 -128 -19 -162 6 -36 27 -56 69 -49 100 9 36 44 32 58
-6 12 -36 60 -64 93 -56 22 6 19 10 -36 67 -62 64 -69 85 -44 129 21 37 18 50
-11 50 -20 0 -28 -8 -41 -37 -18 -45 -28 -53 -69 -53 -29 0 -100 39 -116 64
-11 16 -10 100 1 128 5 13 32 47 60 77 46 49 53 53 83 47 18 -3 51 -19 73 -34z
m4270 -59 c3 -16 14 -57 25 -93 21 -71 36 -234 25 -269 -7 -24 -60 -55 -81
-47 -20 8 -17 43 6 66 39 39 24 63 -93 163 -37 31 -74 57 -82 57 -18 0 -19 12
-3 28 25 25 61 13 115 -40 l53 -52 -6 91 c-4 50 -4 98 -1 107 10 26 36 19 42
-11z m-215 -134 c0 -5 21 -52 46 -104 52 -107 53 -135 9 -150 -16 -6 -41 -18
-55 -27 -35 -23 -82 -31 -113 -19 -27 11 -57 57 -57 89 0 26 72 102 97 102 12
0 23 7 27 15 10 26 -5 45 -36 45 -24 0 -32 -6 -44 -35 -12 -29 -22 -37 -68
-50 -30 -9 -60 -22 -66 -30 -16 -19 -6 -69 25 -131 29 -57 31 -79 9 -88 -25
-10 -44 12 -84 99 -56 120 -58 138 -18 168 18 14 56 31 83 38 30 7 65 25 87
45 37 33 55 41 113 47 34 3 45 0 45 -14z m-3486 -25 c8 -22 -11 -54 -34 -54
-19 0 -29 23 -22 53 5 21 48 23 56 1z m-108 -59 c93 -50 135 -53 170 -14 20
23 37 24 53 5 10 -12 8 -19 -8 -35 -25 -25 -26 -31 -6 -31 8 0 19 -9 25 -19 5
-11 19 -23 31 -26 20 -7 21 -11 14 -100 -4 -55 -3 -95 3 -99 5 -3 37 30 71 74
47 62 67 80 86 80 17 0 25 -6 25 -18 0 -23 -20 -52 -100 -142 -36 -41 -76 -90
-89 -108 -40 -57 -120 -82 -140 -44 -14 26 2 44 45 51 l39 6 0 139 c0 99 -3
140 -12 143 -19 7 -51 -33 -63 -79 -7 -24 -17 -49 -23 -56 -8 -11 -7 -16 6
-23 18 -10 23 -44 9 -53 -5 -3 -25 -3 -46 1 -51 8 -54 33 -15 134 18 46 36 88
41 93 14 17 9 33 -18 44 -24 12 -26 10 -47 -40 -47 -116 -81 -173 -105 -176
-38 -6 -35 22 13 124 25 54 43 104 41 111 -3 8 -23 13 -50 13 -45 0 -46 -1
-70 -52 -13 -29 -31 -70 -40 -90 -15 -37 -28 -44 -60 -32 -18 7 -20 26 -7 52
6 9 21 44 36 77 48 110 65 135 93 135 7 0 51 -20 98 -45z m3158 -26 c14 -11
33 -34 41 -49 18 -35 19 -99 2 -121 -15 -20 -92 -60 -132 -69 -24 -5 -29 -11
-27 -30 1 -13 11 -34 22 -45 24 -25 26 -68 5 -85 -31 -26 -49 0 -121 175 -53
129 -53 145 -11 182 21 18 52 34 76 38 23 4 43 11 47 16 10 17 71 9 98 -12z
m-2403 -149 c23 -13 24 -40 4 -95 -19 -55 -19 -63 8 -70 12 -4 37 -13 55 -21
18 -9 45 -16 59 -17 25 -2 28 2 36 48 10 61 23 77 56 73 21 -2 27 -9 29 -35 2
-17 -4 -45 -12 -61 -8 -16 -18 -53 -22 -83 -3 -30 -15 -73 -25 -96 -11 -23
-19 -48 -19 -56 0 -8 -7 -20 -16 -27 -12 -11 -17 -11 -29 1 -10 11 -12 29 -6
79 4 36 10 71 12 79 3 9 -13 18 -51 28 -72 19 -110 26 -111 22 0 -2 -6 -38
-12 -79 -12 -72 -13 -75 -41 -78 -37 -5 -51 10 -37 36 6 12 16 56 22 99 5 43
16 83 23 88 7 6 15 42 19 83 8 95 14 105 58 82z m1707 -42 c7 -7 12 -21 12
-31 0 -11 9 -34 19 -51 10 -17 22 -46 26 -63 8 -39 20 -43 29 -10 9 38 45 77
71 77 36 0 40 -19 11 -49 -14 -15 -26 -36 -26 -47 0 -11 27 -44 67 -80 73 -66
80 -94 24 -94 -22 0 -44 12 -78 45 l-48 44 -5 -62 c-5 -58 -7 -62 -30 -62 -21
0 -25 5 -28 35 -2 19 -12 42 -21 52 -13 11 -19 33 -20 73 0 31 -3 61 -6 65 -7
12 -72 -26 -79 -47 -4 -8 -1 -43 5 -77 6 -34 9 -80 7 -102 -3 -34 -6 -39 -30
-42 -28 -3 -28 -2 -28 52 0 55 -15 83 -26 49 -36 -110 -97 -162 -175 -146 -34
7 -76 43 -89 77 -5 15 -10 56 -10 91 0 58 3 68 31 100 28 32 36 35 85 35 51 0
55 -2 91 -45 20 -25 41 -45 45 -45 4 0 8 24 8 53 0 61 11 77 56 77 18 0 44 4
58 10 24 9 25 13 20 54 -9 66 5 93 34 64z m-820 -105 c5 -10 12 -35 15 -55 4
-26 16 -47 40 -68 28 -24 37 -42 46 -91 14 -69 22 -67 41 6 19 73 37 105 61
105 11 0 22 -8 25 -17 16 -51 57 -143 64 -143 4 0 11 36 15 80 7 77 8 80 32
80 l25 0 -7 -87 c-4 -49 -13 -98 -21 -110 -8 -12 -14 -29 -14 -37 0 -18 -33
-38 -52 -31 -16 7 -48 77 -48 108 0 12 -4 29 -10 37 -12 19 -16 6 -24 -72 -9
-90 -19 -108 -61 -108 -31 0 -35 3 -35 27 0 22 -9 55 -56 192 -10 31 -19 -6
-24 -97 l-5 -97 -92 1 c-111 1 -123 9 -148 95 -15 55 -15 62 -1 84 23 35 20
45 -13 45 -42 0 -69 -48 -77 -138 -6 -59 -10 -73 -26 -78 -11 -3 -23 -3 -26 1
-10 10 -2 248 9 259 5 5 79 8 169 7 l160 -3 0 45 c0 71 18 99 38 60z m-420
-215 c-3 -152 -3 -153 -26 -156 -16 -3 -25 2 -29 16 -4 16 -16 20 -80 25 -84
6 -117 26 -128 78 -7 33 11 73 29 66 8 -3 28 3 45 14 20 12 50 19 81 19 43 0
50 3 50 20 0 18 -7 20 -55 20 -50 0 -56 -2 -65 -26 -13 -34 -34 -26 -38 15 -6
59 -3 61 113 61 l106 0 -3 -152z m-780 90 c4 -20 -46 -68 -70 -68 -15 0 -18 9
-18 48 0 63 14 77 54 54 17 -10 32 -25 34 -34z m2370 -72 c2 -47 -1 -72 -10
-77 -21 -13 -24 -3 -26 76 -1 67 1 76 16 73 14 -3 18 -16 20 -72z"/>
<path d="M7325 1545 c-40 -39 -28 -95 12 -60 10 9 29 24 42 34 16 12 22 24 18
34 -9 25 -44 21 -72 -8z"/>
<path d="M7416 1464 c-21 -18 -37 -25 -58 -22 -15 3 -28 2 -28 -2 0 -13 57
-60 72 -60 24 0 58 48 58 81 0 35 -7 36 -44 3z"/>
<path d="M2847 1523 c-17 -16 -6 -53 21 -70 15 -10 30 -22 35 -28 4 -6 11 -5
17 5 17 26 11 47 -21 74 -32 27 -41 31 -52 19z"/>
<path d="M2766 1424 c-7 -18 20 -72 45 -87 12 -7 24 -4 47 13 18 13 32 27 32
31 0 5 -17 13 -39 19 -21 5 -44 17 -51 25 -16 19 -26 19 -34 -1z"/>
<path d="M3051 1363 c-23 -20 -38 -94 -27 -137 13 -54 89 -19 117 53 14 36 2
77 -27 90 -33 15 -38 14 -63 -6z"/>
<path d="M6936 1194 c-39 -42 -43 -55 -22 -73 35 -29 92 52 68 95 -8 15 -14
12 -46 -22z"/>
<path d="M6412 1179 c-21 -8 -23 -14 -20 -61 3 -48 5 -53 28 -55 14 -2 45 8
70 20 34 18 46 30 48 51 2 15 -2 34 -9 42 -13 16 -81 18 -117 3z"/>
<path d="M5512 817 c-30 -32 -31 -113 -1 -151 24 -31 68 -35 92 -8 30 33 31
67 3 127 -30 63 -57 72 -94 32z"/>
<path d="M4886 784 c-11 -28 -6 -130 6 -142 34 -34 108 20 108 77 0 54 -97
110 -114 65z"/>
<path d="M4505 750 c-36 -16 -68 -47 -61 -59 13 -21 71 -13 96 13 36 40 15 68
-35 46z"/>
</g>
</svg>
